<?xml version="1.0" encoding="UTF-8" standalone="no"?>
<!DOCTYPE svg PUBLIC "-//W3C//DTD SVG 1.1//EN" "http://www.w3.org/Graphics/SVG/1.1/DTD/svg11.dtd">
<svg xmlns="http://www.w3.org/2000/svg" xmlns:xlink="http://www.w3.org/1999/xlink">
    <symbol id="logo" fill="none" viewBox="0 0 425.43 425.41" stroke-width="1.5" stroke="currentColor"  style="shape-rendering:geometricPrecision; text-rendering:geometricPrecision; image-rendering:optimizeQuality; fill-rule:evenodd; clip-rule:evenodd;">
        <path d="M116.5 240.65l37.43 -0 0 -9.86 -37.44 0 0 -36.15 37.44 -0.01 -0.01 -10.26 -37.43 0.01 -0.01 -70.54 43.86 0 0.02 80.72 104.69 0.08 -0 -80.81 44.54 0 0.01 70.53 -38.17 -0 -0 10.26 38.17 -0 -0.02 36.15 -38.15 -0.02 0.18 9.27 37.99 0.61 0 73.17 -44.55 -0 -0 -83.02 -104.71 0 0 83.03 -43.86 0 -0 -73.17zm181.49 90.24l27.81 -0.04 -0.01 -234.08 -77.76 0.01 0 81.84 -70.13 -0.27 -0.01 -81.56 -78.74 -0 -0.01 234.03c29.45,28.33 69.48,45.75 113.58,45.75 25.45,0 49.54,-5.8 71.03,-16.16l0.01 7.52c-22.01,12.47 -46.7,16.07 -72,16.07 -24.27,0 -47.17,-4.33 -67.31,-14.8l0.02 45.04c20.57,6.96 42.55,10.87 65.4,11.16l0.17 -17.41c-17.14,-0.23 -33.74,-2.67 -49.54,-7.04l-0.03 -7.57c16.14,5.31 33.38,8.19 51.29,8.19 30.17,0 59.56,-8.21 85.27,-23.91l0.96 -46.78zm-14.22 -0.06l-0.01 9.77c-21.04,11.71 -45.26,18.39 -71.05,18.39 -32.28,0 -62.12,-10.46 -86.31,-28.17l51.48 0.02 -0.07 -83.21 70.22 0.03 -0 83.17 35.75 0.01zm-248.76 -36.97l13.64 -6.71c-2.16,-4.72 -4.05,-9.57 -5.82,-14.44l-13.72 6.76c-7.57,-20.83 -11.71,-43.31 -11.71,-66.75 0,-79.7 47.22,-146.95 114,-177.58l-0.2 56.12c4.48,-2.99 9.13,-5.75 13.93,-8.25 20.26,-10.55 43.23,-16.56 67.58,-16.56 30,0 59,9.09 83.57,26.21l26.12 -41.55c25.38,17.22 46.01,39.89 60.65,65.97l15.72 -7.54c-36.41,-65.49 -106.37,-109.53 -186.07,-109.53 -117.48,0 -212.71,95.24 -212.71,212.71 0,85.88 51.64,163.53 131.26,196.56l0.04 -18.98c-42.57,-19.55 -76.85,-53.94 -96.29,-96.44zm186.41 113.97l-0.01 17.42c113.45,-4.56 204.02,-97.97 204.02,-212.54 0,-34.65 -8.31,-68.59 -24.49,-99.2l-43.98 21.48c-2.81,-5.06 -6.83,-11.74 -10.15,-16.46l-16.12 7.69c18.14,24.73 28.29,54.9 28.29,86.49 0,33.03 -11.06,64.44 -30.76,89.76l14.17 10.42c21.81,-28.22 34.17,-63.25 34.17,-100.18 0,-23.49 -3.98,-43.59 -12.88,-63.79l28.37 -13.67c10.37,24.02 15.97,50.3 15.97,77.46 0,104.95 -82.78,190.56 -186.6,195.12zm-131.81 -274.14l-11.1 -15.02c-18.97,27.08 -29.64,59.76 -29.64,94.04 0,35.91 11.67,70.65 33.43,99.2l13.16 -11.74c-18.87,-25.27 -29.01,-55.9 -29.01,-87.46 0,-28.38 8.27,-55.76 23.16,-79.02zm123.1 -84.83c27.46,0 54.27,6.83 78.17,19.82l16.74 -26.68c-28.93,-16.11 -61.49,-24.59 -94.91,-24.6 -23.65,-0 -46.43,4.24 -67.57,12.05l0.01 9.9c10.85,-4.91 22.24,-8.64 34,-11.09l-0.01 15.62c-11.76,2.45 -23.15,6.18 -34,11.09l0 8.42c21.24,-9.61 44.27,-14.54 67.57,-14.54zm-130.3 283.06c2.69,0.14 4.75,2.44 4.61,5.12 -0.14,2.69 -2.44,4.75 -5.12,4.61 -2.69,-0.14 -4.75,-2.44 -4.61,-5.12 0.14,-2.69 2.44,-4.75 5.12,-4.61zm262.86 -246.3c2.69,0.14 4.75,2.44 4.61,5.12 -0.14,2.69 -2.44,4.75 -5.12,4.61 -2.69,-0.14 -4.75,-2.44 -4.61,-5.12 0.14,-2.69 2.44,-4.75 5.12,-4.61zm45.61 117.27c-13.07,2.75 -9.01,22.88 4.54,19.52 11.73,-2.91 8.72,-22.3 -4.54,-19.52zm-360.14 0.21c-5.17,1.33 -9.02,4.45 -7.78,11.75 0.89,5.22 5.75,8.91 12.05,7.55 12.05,-2.6 8.66,-22.63 -4.27,-19.3zm68.71 -135.11c2.69,0.14 4.75,2.44 4.61,5.12 -0.14,2.69 -2.44,4.75 -5.12,4.61 -2.69,-0.14 -4.75,-2.44 -4.61,-5.12 0.14,-2.69 2.44,-4.75 5.12,-4.61zm-16.83 15.54c2.69,0.14 4.75,2.44 4.61,5.12 -0.14,2.69 -2.44,4.75 -5.12,4.61 -2.69,-0.14 -4.75,-2.44 -4.61,-5.12 0.14,-2.69 2.44,-4.75 5.12,-4.61zm-14.99 17.89c2.69,0.14 4.75,2.44 4.61,5.12 -0.14,2.69 -2.44,4.75 -5.12,4.61 -2.69,-0.14 -4.75,-2.44 -4.61,-5.12 0.14,-2.69 2.44,-4.75 5.12,-4.61zm194.68 -66.85c2.69,0.14 4.75,2.44 4.61,5.12 -0.14,2.69 -2.44,4.75 -5.12,4.61 -2.69,-0.14 -4.75,-2.44 -4.61,-5.12 0.14,-2.69 2.44,-4.75 5.12,-4.61zm-49.08 -11.91c5.49,0.29 9.7,4.98 9.41,10.47 -0.29,5.49 -4.98,9.7 -10.47,9.41 -5.49,-0.29 -9.7,-4.98 -9.41,-10.47 0.29,-5.49 4.98,-9.7 10.47,-9.41zm114.7 46.53c2.69,0.14 4.75,2.44 4.61,5.12 -0.14,2.69 -2.44,4.75 -5.12,4.61 -2.69,-0.14 -4.75,-2.44 -4.61,-5.12 0.14,-2.69 2.44,-4.75 5.12,-4.61zm32.44 35.13c2.69,0.14 4.75,2.44 4.61,5.12 -0.14,2.69 -2.44,4.75 -5.12,4.61 -2.69,-0.14 -4.75,-2.44 -4.61,-5.12 0.14,-2.69 2.44,-4.75 5.12,-4.61zm22.4 43.32c2.69,0.14 4.75,2.44 4.61,5.12 -0.14,2.69 -2.44,4.75 -5.12,4.61 -2.69,-0.14 -4.75,-2.44 -4.61,-5.12 0.14,-2.69 2.44,-4.75 5.12,-4.61zm6.59 23.64c2.69,0.14 4.75,2.44 4.61,5.12 -0.14,2.69 -2.44,4.75 -5.12,4.61 -2.69,-0.14 -4.75,-2.44 -4.61,-5.12 0.14,-2.69 2.44,-4.75 5.12,-4.61zm1.49 64.98c2.69,0.14 4.75,2.44 4.61,5.12 -0.14,2.69 -2.44,4.75 -5.12,4.61 -2.69,-0.14 -4.75,-2.44 -4.61,-5.12 0.14,-2.69 2.44,-4.75 5.12,-4.61zm-44.79 92.94c2.69,0.14 4.75,2.44 4.61,5.12 -0.14,2.69 -2.44,4.75 -5.12,4.61 -2.69,-0.14 -4.75,-2.44 -4.61,-5.12 0.14,-2.69 2.44,-4.75 5.12,-4.61zm-18.96 17.99c2.69,0.14 4.75,2.44 4.61,5.12 -0.14,2.69 -2.44,4.75 -5.12,4.61 -2.69,-0.14 -4.75,-2.44 -4.61,-5.12 0.14,-2.69 2.44,-4.75 5.12,-4.61zm-227.67 0.5c2.69,0.14 4.75,2.44 4.61,5.12 -0.14,2.69 -2.44,4.75 -5.12,4.61 -2.69,-0.14 -4.75,-2.44 -4.61,-5.12 0.14,-2.69 2.44,-4.75 5.12,-4.61zm-33.68 -36.03c2.69,0.14 4.75,2.44 4.61,5.12 -0.14,2.69 -2.44,4.75 -5.12,4.61 -2.69,-0.14 -4.75,-2.44 -4.61,-5.12 0.14,-2.69 2.44,-4.75 5.12,-4.61z"/>
    </symbol>
    <symbol id="close" fill="none" viewBox="0 0 24 24" stroke-width="1.5" stroke="currentColor">
        <path stroke-linecap="round" stroke-linejoin="round" d="M6 18L18 6M6 6l12 12"></path>
    </symbol>
    <symbol id="home" fill="none" viewBox="0 0 24 24" stroke-width="1.5" stroke="currentColor">
        <path stroke-linecap="round" stroke-linejoin="round" d="M2.25 12l8.954-8.955c.44-.439 1.152-.439 1.591 0L21.75 12M4.5 9.75v10.125c0 .621.504 1.125 1.125 1.125H9.75v-4.875c0-.621.504-1.125 1.125-1.125h2.25c.621 0 1.125.504 1.125 1.125V21h4.125c.621 0 1.125-.504 1.125-1.125V9.75M8.25 21h8.25"/>
    </symbol>
    <symbol id="chat-pie" fill="none" viewBox="0 0 24 24" stroke-width="1.5" stroke="currentColor">
        <path stroke-linecap="round" stroke-linejoin="round" d="M10.5 6a7.5 7.5 0 107.5 7.5h-7.5V6z"/>
        <path stroke-linecap="round" stroke-linejoin="round" d="M13.5 10.5H21A7.5 7.5 0 0013.5 3v7.5z"/>
    </symbol>
    <symbol id="calendar" fill="none" viewBox="0 0 24 24" stroke-width="1.5" stroke="currentColor">
        <path stroke-linecap="round" stroke-linejoin="round" d="M6.75 3v2.25M17.25 3v2.25M3 18.75V7.5a2.25 2.25 0 012.25-2.25h13.5A2.25 2.25 0 0121 7.5v11.25m-18 0A2.25 2.25 0 005.25 21h13.5A2.25 2.25 0 0021 18.75m-18 0v-7.5A2.25 2.25 0 015.25 9h13.5A2.25 2.25 0 0121 11.25v7.5"/>
    </symbol>
    <symbol id="book-open" fill="none" viewBox="0 0 24 24" stroke-width="1.5" stroke="currentColor">
        <path stroke-linecap="round" stroke-linejoin="round" d="M12 6.042A8.967 8.967 0 0 0 6 3.75c-1.052 0-2.062.18-3 .512v14.25A8.987 8.987 0 0 1 6 18c2.305 0 4.408.867 6 2.292m0-14.25a8.966 8.966 0 0 1 6-2.292c1.052 0 2.062.18 3 .512v14.25A8.987 8.987 0 0 0 18 18a8.967 8.967 0 0 0-6 2.292m0-14.25v14.25" />
    </symbol>
    <symbol id="users" fill="none" viewBox="0 0 24 24" stroke-width="1.5" stroke="currentColor">
        <path stroke-linecap="round" stroke-linejoin="round" d="M15 19.128a9.38 9.38 0 0 0 2.625.372 9.337 9.337 0 0 0 4.121-.952 4.125 4.125 0 0 0-7.533-2.493M15 19.128v-.003c0-1.113-.285-2.16-.786-3.07M15 19.128v.106A12.318 12.318 0 0 1 8.624 21c-2.331 0-4.512-.645-6.374-1.766l-.001-.109a6.375 6.375 0 0 1 11.964-3.07M12 6.375a3.375 3.375 0 1 1-6.75 0 3.375 3.375 0 0 1 6.75 0Zm8.25 2.25a2.625 2.625 0 1 1-5.25 0 2.625 2.625 0 0 1 5.25 0Z" />
    </symbol>
    <symbol id="user-group" fill="none" viewBox="0 0 24 24" stroke-width="1.5" stroke="currentColor">
        <path stroke-linecap="round" stroke-linejoin="round" d="M18 18.72a9.094 9.094 0 0 0 3.741-.479 3 3 0 0 0-4.682-2.72m.94 3.198.001.031c0 .225-.012.447-.037.666A11.944 11.944 0 0 1 12 21c-2.17 0-4.207-.576-5.963-1.584A6.062 6.062 0 0 1 6 18.719m12 0a5.971 5.971 0 0 0-.941-3.197m0 0A5.995 5.995 0 0 0 12 12.75a5.995 5.995 0 0 0-5.058 2.772m0 0a3 3 0 0 0-4.681 2.72 8.986 8.986 0 0 0 3.74.477m.94-3.197a5.971 5.971 0 0 0-.94 3.197M15 6.75a3 3 0 1 1-6 0 3 3 0 0 1 6 0Zm6 3a2.25 2.25 0 1 1-4.5 0 2.25 2.25 0 0 1 4.5 0Zm-13.5 0a2.25 2.25 0 1 1-4.5 0 2.25 2.25 0 0 1 4.5 0Z" />
    </symbol>
    <symbol id="login" fill="none" viewBox="0 0 24 24" stroke-width="1.5" stroke="currentColor">
        <path stroke-linecap="round" stroke-linejoin="round" d="M8.25 9V5.25A2.25 2.25 0 0 1 10.5 3h6a2.25 2.25 0 0 1 2.25 2.25v13.5A2.25 2.25 0 0 1 16.5 21h-6a2.25 2.25 0 0 1-2.25-2.25V15M12 9l3 3m0 0-3 3m3-3H2.25" />
    </symbol>
    <symbol id="clipboard-document-list" fill="none" viewBox="0 0 24 24" stroke-width="1.5" stroke="currentColor">
        <path stroke-linecap="round" stroke-linejoin="round" d="M9 12h3.75M9 15h3.75M9 18h3.75m3 .75H18a2.25 2.25 0 0 0 2.25-2.25V6.108c0-1.135-.845-2.098-1.976-2.192a48.424 48.424 0 0 0-1.123-.08m-5.801 0c-.065.21-.1.433-.1.664 0 .414.336.75.75.75h4.5a.75.75 0 0 0 .75-.75 2.25 2.25 0 0 0-.1-.664m-5.8 0A2.251 2.251 0 0 1 13.5 2.25H15c1.012 0 1.867.668 2.15 1.586m-5.8 0c-.376.023-.75.05-1.124.08C9.095 4.01 8.25 4.973 8.25 6.108V8.25m0 0H4.875c-.621 0-1.125.504-1.125 1.125v11.25c0 .621.504 1.125 1.125 1.125h9.75c.621 0 1.125-.504 1.125-1.125V9.375c0-.621-.504-1.125-1.125-1.125H8.25ZM6.75 12h.008v.008H6.75V12Zm0 3h.008v.008H6.75V15Zm0 3h.008v.008H6.75V18Z" />
    </symbol>
    <symbol id="identification" fill="none" viewBox="0 0 24 24" stroke-width="1.5" stroke="currentColor">
        <path stroke-linecap="round" stroke-linejoin="round" d="M15 9h3.75M15 12h3.75M15 15h3.75M4.5 19.5h15a2.25 2.25 0 0 0 2.25-2.25V6.75A2.25 2.25 0 0 0 19.5 4.5h-15a2.25 2.25 0 0 0-2.25 2.25v10.5A2.25 2.25 0 0 0 4.5 19.5Zm6-10.125a1.875 1.875 0 1 1-3.75 0 1.875 1.875 0 0 1 3.75 0Zm1.294 6.336a6.721 6.721 0 0 1-3.17.789 6.721 6.721 0 0 1-3.168-.789 3.376 3.376 0 0 1 6.338 0Z" />
    </symbol>
    <symbol id="settings" fill="none" viewBox="0 0 24 24" stroke-width="1.5" stroke="currentColor">
        <path stroke-linecap="round" stroke-linejoin="round" d="M9.594 3.94c.09-.542.56-.94 1.11-.94h2.593c.55 0 1.02.398 1.11.94l.213 1.281c.063.374.313.686.645.87.074.04.147.083.22.127.325.196.72.257 1.075.124l1.217-.456a1.125 1.125 0 0 1 1.37.49l1.296 2.247a1.125 1.125 0 0 1-.26 1.431l-1.003.827c-.293.241-.438.613-.43.992a7.723 7.723 0 0 1 0 .255c-.008.378.137.75.43.991l1.004.827c.424.35.534.955.26 1.43l-1.298 2.247a1.125 1.125 0 0 1-1.369.491l-1.217-.456c-.355-.133-.75-.072-1.076.124a6.47 6.47 0 0 1-.22.128c-.331.183-.581.495-.644.869l-.213 1.281c-.09.543-.56.94-1.11.94h-2.594c-.55 0-1.019-.398-1.11-.94l-.213-1.281c-.062-.374-.312-.686-.644-.87a6.52 6.52 0 0 1-.22-.127c-.325-.196-.72-.257-1.076-.124l-1.217.456a1.125 1.125 0 0 1-1.369-.49l-1.297-2.247a1.125 1.125 0 0 1 .26-1.431l1.004-.827c.292-.24.437-.613.43-.991a6.932 6.932 0 0 1 0-.255c.007-.38-.138-.751-.43-.992l-1.004-.827a1.125 1.125 0 0 1-.26-1.43l1.297-2.247a1.125 1.125 0 0 1 1.37-.491l1.216.456c.356.133.751.072 1.076-.124.072-.044.146-.086.22-.128.332-.183.582-.495.644-.869l.214-1.28Z" />
        <path stroke-linecap="round" stroke-linejoin="round" d="M15 12a3 3 0 1 1-6 0 3 3 0 0 1 6 0Z" />
    </symbol>
    <symbol id="folder" fill="none" viewBox="0 0 24 24" stroke-width="1.5" stroke="currentColor">
        <path stroke-linecap="round" stroke-linejoin="round" d="M2.25 12.75V12A2.25 2.25 0 014.5 9.75h15A2.25 2.25 0 0121.75 12v.75m-8.69-6.44l-2.12-2.12a1.5 1.5 0 00-1.061-.44H4.5A2.25 2.25 0 002.25 6v12a2.25 2.25 0 002.25 2.25h15A2.25 2.25 0 0021.75 18V9a2.25 2.25 0 00-2.25-2.25h-5.379a1.5 1.5 0 01-1.06-.44z"/>
    </symbol>
</svg>