
<svg fill="rgb(79, 70, 229)" xmlns="http://www.w3.org/2000/svg" xmlns:xlink="http://www.w3.org/1999/xlink" style="shape-rendering:geometricPrecision; text-rendering:geometricPrecision; image-rendering:optimizeQuality; fill-rule:evenodd; clip-rule:evenodd;" viewBox="0 0 425.43 425.41">
  <path d="M116.5 240.65l37.43 -0 0 -9.86 -37.44 0 0 -36.15 37.44 -0.01 -0.01 -10.26 -37.43 0.01 -0.01 -70.54 43.86 0 0.02 80.72 104.69 0.08 -0 -80.81 44.54 0 0.01 70.53 -38.17 -0 -0 10.26 38.17 -0 -0.02 36.15 -38.15 -0.02 0.18 9.27 37.99 0.61 0 73.17 -44.55 -0 -0 -83.02 -104.71 0 0 83.03 -43.86 0 -0 -73.17zm181.49 90.24l27.81 -0.04 -0.01 -234.08 -77.76 0.01 0 81.84 -70.13 -0.27 -0.01 -81.56 -78.74 -0 -0.01 234.03c29.45,28.33 69.48,45.75 113.58,45.75 25.45,0 49.54,-5.8 71.03,-16.16l0.01 7.52c-22.01,12.47 -46.7,16.07 -72,16.07 -24.27,0 -47.17,-4.33 -67.31,-14.8l0.02 45.04c20.57,6.96 42.55,10.87 65.4,11.16l0.17 -17.41c-17.14,-0.23 -33.74,-2.67 -49.54,-7.04l-0.03 -7.57c16.14,5.31 33.38,8.19 51.29,8.19 30.17,0 59.56,-8.21 85.27,-23.91l0.96 -46.78zm-14.22 -0.06l-0.01 9.77c-21.04,11.71 -45.26,18.39 -71.05,18.39 -32.28,0 -62.12,-10.46 -86.31,-28.17l51.48 0.02 -0.07 -83.21 70.22 0.03 -0 83.17 35.75 0.01zm-248.76 -36.97l13.64 -6.71c-2.16,-4.72 -4.05,-9.57 -5.82,-14.44l-13.72 6.76c-7.57,-20.83 -11.71,-43.31 -11.71,-66.75 0,-79.7 47.22,-146.95 114,-177.58l-0.2 56.12c4.48,-2.99 9.13,-5.75 13.93,-8.25 20.26,-10.55 43.23,-16.56 67.58,-16.56 30,0 59,9.09 83.57,26.21l26.12 -41.55c25.38,17.22 46.01,39.89 60.65,65.97l15.72 -7.54c-36.41,-65.49 -106.37,-109.53 -186.07,-109.53 -117.48,0 -212.71,95.24 -212.71,212.71 0,85.88 51.64,163.53 131.26,196.56l0.04 -18.98c-42.57,-19.55 -76.85,-53.94 -96.29,-96.44zm186.41 113.97l-0.01 17.42c113.45,-4.56 204.02,-97.97 204.02,-212.54 0,-34.65 -8.31,-68.59 -24.49,-99.2l-43.98 21.48c-2.81,-5.06 -6.83,-11.74 -10.15,-16.46l-16.12 7.69c18.14,24.73 28.29,54.9 28.29,86.49 0,33.03 -11.06,64.44 -30.76,89.76l14.17 10.42c21.81,-28.22 34.17,-63.25 34.17,-100.18 0,-23.49 -3.98,-43.59 -12.88,-63.79l28.37 -13.67c10.37,24.02 15.97,50.3 15.97,77.46 0,104.95 -82.78,190.56 -186.6,195.12zm-131.81 -274.14l-11.1 -15.02c-18.97,27.08 -29.64,59.76 -29.64,94.04 0,35.91 11.67,70.65 33.43,99.2l13.16 -11.74c-18.87,-25.27 -29.01,-55.9 -29.01,-87.46 0,-28.38 8.27,-55.76 23.16,-79.02zm123.1 -84.83c27.46,0 54.27,6.83 78.17,19.82l16.74 -26.68c-28.93,-16.11 -61.49,-24.59 -94.91,-24.6 -23.65,-0 -46.43,4.24 -67.57,12.05l0.01 9.9c10.85,-4.91 22.24,-8.64 34,-11.09l-0.01 15.62c-11.76,2.45 -23.15,6.18 -34,11.09l0 8.42c21.24,-9.61 44.27,-14.54 67.57,-14.54zm-130.3 283.06c2.69,0.14 4.75,2.44 4.61,5.12 -0.14,2.69 -2.44,4.75 -5.12,4.61 -2.69,-0.14 -4.75,-2.44 -4.61,-5.12 0.14,-2.69 2.44,-4.75 5.12,-4.61zm262.86 -246.3c2.69,0.14 4.75,2.44 4.61,5.12 -0.14,2.69 -2.44,4.75 -5.12,4.61 -2.69,-0.14 -4.75,-2.44 -4.61,-5.12 0.14,-2.69 2.44,-4.75 5.12,-4.61zm45.61 117.27c-13.07,2.75 -9.01,22.88 4.54,19.52 11.73,-2.91 8.72,-22.3 -4.54,-19.52zm-360.14 0.21c-5.17,1.33 -9.02,4.45 -7.78,11.75 0.89,5.22 5.75,8.91 12.05,7.55 12.05,-2.6 8.66,-22.63 -4.27,-19.3zm68.71 -135.11c2.69,0.14 4.75,2.44 4.61,5.12 -0.14,2.69 -2.44,4.75 -5.12,4.61 -2.69,-0.14 -4.75,-2.44 -4.61,-5.12 0.14,-2.69 2.44,-4.75 5.12,-4.61zm-16.83 15.54c2.69,0.14 4.75,2.44 4.61,5.12 -0.14,2.69 -2.44,4.75 -5.12,4.61 -2.69,-0.14 -4.75,-2.44 -4.61,-5.12 0.14,-2.69 2.44,-4.75 5.12,-4.61zm-14.99 17.89c2.69,0.14 4.75,2.44 4.61,5.12 -0.14,2.69 -2.44,4.75 -5.12,4.61 -2.69,-0.14 -4.75,-2.44 -4.61,-5.12 0.14,-2.69 2.44,-4.75 5.12,-4.61zm194.68 -66.85c2.69,0.14 4.75,2.44 4.61,5.12 -0.14,2.69 -2.44,4.75 -5.12,4.61 -2.69,-0.14 -4.75,-2.44 -4.61,-5.12 0.14,-2.69 2.44,-4.75 5.12,-4.61zm-49.08 -11.91c5.49,0.29 9.7,4.98 9.41,10.47 -0.29,5.49 -4.98,9.7 -10.47,9.41 -5.49,-0.29 -9.7,-4.98 -9.41,-10.47 0.29,-5.49 4.98,-9.7 10.47,-9.41zm114.7 46.53c2.69,0.14 4.75,2.44 4.61,5.12 -0.14,2.69 -2.44,4.75 -5.12,4.61 -2.69,-0.14 -4.75,-2.44 -4.61,-5.12 0.14,-2.69 2.44,-4.75 5.12,-4.61zm32.44 35.13c2.69,0.14 4.75,2.44 4.61,5.12 -0.14,2.69 -2.44,4.75 -5.12,4.61 -2.69,-0.14 -4.75,-2.44 -4.61,-5.12 0.14,-2.69 2.44,-4.75 5.12,-4.61zm22.4 43.32c2.69,0.14 4.75,2.44 4.61,5.12 -0.14,2.69 -2.44,4.75 -5.12,4.61 -2.69,-0.14 -4.75,-2.44 -4.61,-5.12 0.14,-2.69 2.44,-4.75 5.12,-4.61zm6.59 23.64c2.69,0.14 4.75,2.44 4.61,5.12 -0.14,2.69 -2.44,4.75 -5.12,4.61 -2.69,-0.14 -4.75,-2.44 -4.61,-5.12 0.14,-2.69 2.44,-4.75 5.12,-4.61zm1.49 64.98c2.69,0.14 4.75,2.44 4.61,5.12 -0.14,2.69 -2.44,4.75 -5.12,4.61 -2.69,-0.14 -4.75,-2.44 -4.61,-5.12 0.14,-2.69 2.44,-4.75 5.12,-4.61zm-44.79 92.94c2.69,0.14 4.75,2.44 4.61,5.12 -0.14,2.69 -2.44,4.75 -5.12,4.61 -2.69,-0.14 -4.75,-2.44 -4.61,-5.12 0.14,-2.69 2.44,-4.75 5.12,-4.61zm-18.96 17.99c2.69,0.14 4.75,2.44 4.61,5.12 -0.14,2.69 -2.44,4.75 -5.12,4.61 -2.69,-0.14 -4.75,-2.44 -4.61,-5.12 0.14,-2.69 2.44,-4.75 5.12,-4.61zm-227.67 0.5c2.69,0.14 4.75,2.44 4.61,5.12 -0.14,2.69 -2.44,4.75 -5.12,4.61 -2.69,-0.14 -4.75,-2.44 -4.61,-5.12 0.14,-2.69 2.44,-4.75 5.12,-4.61zm-33.68 -36.03c2.69,0.14 4.75,2.44 4.61,5.12 -0.14,2.69 -2.44,4.75 -5.12,4.61 -2.69,-0.14 -4.75,-2.44 -4.61,-5.12 0.14,-2.69 2.44,-4.75 5.12,-4.61z"/>
</svg>